<svg viewBox="0 0 520 440" width="500" height="420" xmlns="http://www.w3.org/2000/svg" style="display: block;"><defs><pattern id="grid-dk" width="20" height="20" patternUnits="userSpaceOnUse"><path d="M 20 0 L 0 0 0 20" fill="none" stroke="rgba(255,255,255,0.06)" stroke-width="0.5"></path></pattern><pattern id="grid-dk-coarse" width="100" height="100" patternUnits="userSpaceOnUse"><path d="M 100 0 L 0 0 0 100" fill="none" stroke="rgba(255,255,255,0.12)" stroke-width="0.5"></path></pattern></defs><rect width="520" height="440" fill="url(#grid-dk)"></rect><rect width="520" height="440" fill="url(#grid-dk-coarse)"></rect><g transform="translate(140 60) scale(5)"><rect x="14" y="10" width="14" height="12" fill="#e5e7eb"></rect><rect x="14" y="24" width="14" height="12" fill="#e5e7eb"></rect><rect x="14" y="38" width="14" height="12" fill="#e5e7eb"></rect><rect x="30" y="38" width="20" height="12" fill="#22c55e"></rect></g><g stroke="#e5e7eb" stroke-width="0.5" fill="none" opacity="0.5"><line x1="210" y1="40" x2="210" y2="60"></line><line x1="350" y1="40" x2="350" y2="60"></line><line x1="210" y1="50" x2="350" y2="50"></line></g><text x="280" y="45" text-anchor="middle" font-family="Geist Mono, monospace" font-size="9" fill="#e5e7eb" opacity="0.6">14u</text><g stroke="#e5e7eb" stroke-width="0.5" fill="none" opacity="0.5"><line x1="450" y1="240" x2="470" y2="240"></line><line x1="450" y1="300" x2="470" y2="300"></line><line x1="460" y1="240" x2="460" y2="300"></line></g><text x="475" y="275" font-family="Geist Mono, monospace" font-size="9" fill="#22c55e">+20u</text><g stroke="#22c55e" stroke-width="0.5" opacity="0.6"><line x1="290" y1="270" x2="430" y2="270"></line><line x1="360" y1="240" x2="360" y2="300"></line></g><g font-family="Geist Mono, monospace" font-size="9" fill="#6b7280" letter-spacing="0.06em"><text x="20" y="30">L-001 · SPEC</text><text x="500" y="30" text-anchor="end">SCALE 5:1</text><text x="20" y="415">3 SERVICES + 1 LAYER</text><text x="500" y="415" text-anchor="end">LINTUNE.XYZ</text></g></svg>
